<?xml version="1.0" encoding="utf-8"?><svg viewBox="0 0 23 24" xmlns="http://www.w3.org/2000/svg" xmlns:xlink="http://www.w3.org/1999/xlink"><style>:root>svg{display:none}:root>svg:target{display:block}</style><svg fill="none" viewBox="0 0 23 16" id="arrow_right" xmlns="http://www.w3.org/2000/svg"><path d="M22.707 8.707a1 1 0 000-1.414L16.343.929a1 1 0 10-1.414 1.414L20.586 8l-5.657 5.657a1 1 0 001.414 1.414l6.364-6.364zM0 9h22V7H0v2z" fill="#fff"/></svg><svg fill="none" viewBox="0 0 18 24" id="shop" xmlns="http://www.w3.org/2000/svg"><path d="M2 23.415h14c1.103 0 2-1.05 2-2.342V8.195c0-.31-.105-.608-.293-.828A.932.932 0 0017 7.024h-3v-1.17C14 2.626 11.757 0 9 0S4 2.626 4 5.854v1.17H1a.932.932 0 00-.707.343A1.28 1.28 0 000 8.195v12.878c0 1.292.897 2.342 2 2.342zM6 5.854C6 3.917 7.346 2.34 9 2.34s3 1.576 3 3.513v1.17H6v-1.17zM2 9.366h2v2.341h2V9.366h6v2.341h2V9.366h2l.002 11.707H2V9.366z" fill="#FFC75B"/></svg><svg fill="none" viewBox="0 0 20 16" id="social_icon_1" xmlns="http://www.w3.org/2000/svg"><path d="M18.65.105L.934 6.622c-1.21.463-1.202 1.107-.222 1.393L5.261 9.37l10.523-6.334c.498-.289.952-.133.579.183l-8.527 7.34h-.002l.002.001-.313 4.473c.46 0 .662-.202.92-.439l2.21-2.05 4.595 3.239c.847.445 1.456.216 1.666-.749l3.017-13.561C20.24.292 19.458-.244 18.65.105z" fill="#fff"/></svg><svg fill="none" viewBox="0 0 20 18" id="social_icon_2" xmlns="http://www.w3.org/2000/svg"><path d="M17.945 4.486c.014.197.014.393.014.59C17.959 11.08 13.834 18 6.296 18c-2.323 0-4.48-.745-6.296-2.04.33.042.647.056.99.056 1.845.005 3.638-.678 5.09-1.94a3.855 3.855 0 01-2.372-.895 4.564 4.564 0 01-1.462-2.255c.253.042.508.07.775.07.367 0 .736-.056 1.08-.155-.93-.207-1.764-.765-2.363-1.577a4.853 4.853 0 01-.925-2.88v-.057c.547.338 1.18.548 1.852.577a4.404 4.404 0 01-1.343-1.637 4.93 4.93 0 01-.484-2.146c0-.843.202-1.617.557-2.291a11.975 11.975 0 003.771 3.371 10.784 10.784 0 004.682 1.382 5.698 5.698 0 01-.101-1.04c0-.597.105-1.188.311-1.74a4.6 4.6 0 01.889-1.473c.38-.422.832-.757 1.33-.985A3.753 3.753 0 0113.846 0c1.18 0 2.246.548 2.995 1.434A7.635 7.635 0 0019.442.337c-.306 1.05-.946 1.94-1.802 2.504A7.594 7.594 0 0020 2.137a9.376 9.376 0 01-2.055 2.349z" fill="#fff"/></svg><svg fill="none" viewBox="0 0 10 22" id="social_icon_3" xmlns="http://www.w3.org/2000/svg"><path d="M6.496 22V11.981h2.962l.44-3.923H6.496V5.56c0-1.132.277-1.907 1.7-1.907H10V.155C9.122.048 8.24-.004 7.358 0 4.74 0 2.942 1.824 2.942 5.172v2.879H0v3.923h2.949V22h3.547z" fill="#fff"/></svg></svg>